<svg width="307" height="61" viewBox="0 0 307 61" xmlns="http://www.w3.org/2000/svg"><g fill="#FFF" fill-rule="evenodd"><path d="M31.266 1.52C33.554.965 35.93 0 37.672 0c5.537 0 8.895 4.684 8.895 9.029 0 2.78-1.673 12.19-3.146 16.951C41.95 30.74 39.43 61 33.113 61s-4.76-24.829-9.785-24.829c-5.026 0-3.247 23.758-10.23 23.758-6.48 0-5.765-17.617-8.316-28.582C3.431 25.54-.011 16.56 0 9.03.008 3.496 4.659 0 8.895 0 14.433 0 27.33 5.984 32.8 9.386c0 0-3.78-3.962-9.567-7.016 2.558.022 5.748-.298 8.034-.85zM61.098 44.53v-2.27c2.062 1.313 4.15 1.969 6.266 1.969 2.249 0 3.956-.466 5.12-1.396 1.165-.93 1.748-2.232 1.748-3.906 0-1.473-.392-2.647-1.175-3.524-.783-.877-2.48-2.072-5.091-3.585-2.919-1.7-4.766-3.123-5.543-4.267-.776-1.145-1.164-2.467-1.164-3.967 0-2.035.79-3.762 2.37-5.18 1.579-1.42 3.688-2.13 6.325-2.13 1.714 0 3.427.288 5.141.864v2.088c-1.687-.763-3.487-1.144-5.402-1.144-1.955 0-3.504.495-4.649 1.486-1.145.99-1.717 2.25-1.717 3.775 0 1.473.392 2.644 1.175 3.515.783.87 2.473 2.055 5.07 3.554 2.692 1.526 4.482 2.882 5.373 4.067.89 1.185 1.335 2.547 1.335 4.087 0 2.209-.766 4.01-2.3 5.402-1.532 1.392-3.698 2.088-6.496 2.088-.99 0-2.132-.154-3.424-.462-1.292-.308-2.28-.662-2.962-1.064zm21.85-24.721c-.402 0-.757-.147-1.065-.442-.308-.294-.462-.67-.462-1.125 0-.441.157-.8.472-1.074a1.564 1.564 0 0 1 1.054-.412c.415 0 .78.134 1.095.402.314.268.472.63.472 1.084 0 .429-.154.797-.462 1.105a1.507 1.507 0 0 1-1.105.462zm-.904 25.745V24.99h1.847v20.564h-1.847zm34.22 0v-12.37c0-2.584-.406-4.398-1.216-5.443-.81-1.044-2.091-1.566-3.845-1.566-1.62 0-3.02.696-4.197 2.088-1.179 1.393-1.768 3.14-1.768 5.242v12.05h-1.847V33.042c0-4.579-1.74-6.868-5.222-6.868-1.673 0-3.065.7-4.177 2.098-1.11 1.4-1.666 3.21-1.666 5.433v11.848h-1.848V24.99h1.848v3.414h.08c1.432-2.61 3.528-3.916 6.286-3.916 1.5 0 2.781.432 3.845 1.295 1.065.864 1.784 1.998 2.16 3.404.642-1.486 1.562-2.64 2.76-3.464 1.199-.823 2.5-1.235 3.906-1.235 4.499 0 6.748 2.785 6.748 8.354v12.712h-1.848zm9.94-3.655h-.08v13.114h-1.848V24.99h1.848v4.237h.08c.736-1.512 1.79-2.68 3.163-3.504 1.372-.823 2.882-1.235 4.529-1.235 2.61 0 4.649.9 6.115 2.701 1.466 1.8 2.199 4.247 2.199 7.34 0 3.44-.84 6.222-2.52 8.344-1.681 2.122-3.9 3.183-6.658 3.183-3.08 0-5.355-1.385-6.828-4.157zm-.08-7.651v2.59c0 2.062.65 3.833 1.948 5.312 1.298 1.48 3.005 2.22 5.12 2.22 2.103 0 3.81-.901 5.122-2.702 1.312-1.8 1.968-4.167 1.968-7.099 0-2.57-.603-4.612-1.808-6.125s-2.811-2.27-4.82-2.27c-2.396 0-4.25.804-5.562 2.41-1.312 1.607-1.968 3.495-1.968 5.664zm21.186 11.306V15.11h1.848v30.444h-1.848zm8.877-10.202c0 2.825.652 5.034 1.958 6.628 1.305 1.593 3.096 2.39 5.372 2.39 2.302 0 4.552-.85 6.747-2.551v1.968c-2.128 1.513-4.505 2.27-7.129 2.27-2.65 0-4.793-.951-6.426-2.852-1.634-1.902-2.45-4.586-2.45-8.053 0-3 .853-5.526 2.56-7.581 1.707-2.055 3.926-3.083 6.658-3.083 2.557 0 4.518.897 5.884 2.691 1.365 1.794 2.048 4.244 2.048 7.35v.823h-15.222zm13.294-1.686c-.08-2.37-.65-4.211-1.707-5.523-1.058-1.312-2.517-1.968-4.378-1.968-1.928 0-3.524.646-4.79 1.938-1.265 1.292-2.044 3.143-2.339 5.553h13.214zm5.964 10.984v-2.229c.697.603 1.54 1.078 2.53 1.426.992.348 1.848.522 2.571.522 3.227 0 4.84-1.318 4.84-3.956 0-.91-.355-1.687-1.064-2.33-.71-.642-1.861-1.305-3.454-1.988-1.968-.856-3.35-1.743-4.147-2.66-.797-.918-1.195-2.032-1.195-3.344 0-1.674.64-3.026 1.918-4.057 1.278-1.03 2.855-1.546 4.729-1.546 1.767 0 3.28.361 4.539 1.084v2.089c-1.527-.99-3.107-1.486-4.74-1.486-1.352 0-2.443.351-3.273 1.054-.83.703-1.245 1.617-1.245 2.741 0 .978.26 1.771.783 2.38.522.61 1.673 1.309 3.454 2.099 2.142.964 3.615 1.857 4.418 2.68.803.824 1.205 1.919 1.205 3.284 0 1.633-.613 2.982-1.838 4.047-1.225 1.064-2.915 1.596-5.07 1.596-1.982 0-3.635-.468-4.96-1.406zM195.447 45.554V16.756h7.952c10.148 0 15.222 4.68 15.222 14.038 0 4.445-1.409 8.016-4.227 10.714-2.818 2.697-6.59 4.046-11.316 4.046h-7.631zm3.373-25.745v22.693h4.298c3.775 0 6.714-1.011 8.816-3.033 2.102-2.021 3.153-4.886 3.153-8.595 0-7.377-3.923-11.065-11.768-11.065h-4.499zm41.55 16.286h-14.519c.054 2.29.67 4.057 1.848 5.302 1.178 1.245 2.798 1.868 4.86 1.868 2.316 0 4.444-.763 6.386-2.29v3.093c-1.808 1.312-4.198 1.968-7.17 1.968-2.905 0-5.188-.934-6.848-2.801-1.66-1.868-2.49-4.495-2.49-7.883 0-3.2.907-5.807 2.721-7.822 1.814-2.014 4.067-3.022 6.758-3.022 2.69 0 4.773.87 6.245 2.61 1.473 1.741 2.21 4.158 2.21 7.25v1.727zm-3.373-2.791c-.014-1.901-.472-3.38-1.376-4.438-.904-1.058-2.159-1.587-3.765-1.587-1.553 0-2.872.556-3.957 1.667-1.084 1.111-1.753 2.564-2.008 4.358h11.106zm25.424 12.25h-3.294V33.826c0-4.364-1.593-6.547-4.78-6.547-1.646 0-3.008.62-4.086 1.858-1.078 1.238-1.617 2.801-1.617 4.69v11.727h-3.293V24.99h3.293v3.414h.08c1.554-2.597 3.803-3.896 6.748-3.896 2.25 0 3.97.726 5.161 2.179 1.192 1.453 1.788 3.551 1.788 6.296v12.571zm15.744-.2c-.777.428-1.8.642-3.073.642-3.601 0-5.402-2.008-5.402-6.025v-12.17h-3.534v-2.81h3.534V19.97l3.294-1.065v6.085h5.18v2.812h-5.18v11.587c0 1.379.234 2.363.703 2.952.468.59 1.245.884 2.33.884.83 0 1.545-.228 2.148-.683v2.811zm19.118.2h-3.293v-3.213h-.08c-1.433 2.463-3.542 3.695-6.327 3.695-2.048 0-3.651-.542-4.81-1.627-1.157-1.084-1.736-2.523-1.736-4.317 0-3.843 2.262-6.078 6.787-6.708l6.166-.863c0-3.494-1.413-5.242-4.238-5.242-2.477 0-4.712.844-6.707 2.53v-3.373c2.021-1.285 4.351-1.928 6.988-1.928 4.834 0 7.25 2.557 7.25 7.671v13.375zm-3.293-10.402l-4.96.682c-1.527.215-2.678.593-3.455 1.135-.776.542-1.165 1.503-1.165 2.882 0 1.004.359 1.824 1.075 2.46.716.636 1.67.954 2.862.954 1.633 0 2.982-.573 4.046-1.717 1.064-1.145 1.597-2.594 1.597-4.348v-2.048zm12.792 10.402h-3.294V15.11h3.294v30.444z"/></g></svg>